<svg width="92" height="13" viewBox="0 0 92 13" fill="none" xmlns="http://www.w3.org/2000/svg">
<path d="M91.2372 7.13297L82.0332 12.4248C81.7375 12.5942 81.3678 12.6788 80.9981 12.6788C80.6285 12.6788 80.2589 12.5942 79.9632 12.4248C79.3717 12.0861 79.3717 11.557 79.9632 11.2183L86.6537 7.36581H65.0666C64.2534 7.36581 63.588 6.9848 63.588 6.51912C63.588 6.05343 64.2534 5.67242 65.0666 5.67242H86.6537L79.9632 1.81996C79.3717 1.48128 79.3717 0.952093 79.9632 0.613414C80.5546 0.274736 81.4787 0.274736 82.0701 0.613414L91.2742 5.90526C91.8287 6.26511 91.8287 6.81546 91.2372 7.13297Z" fill="#FF5722"/>
<rect y="5.48203" width="88.7142" height="2.11638" rx="1.05819" fill="#FF5722"/>
</svg>
